<svg width="37" height="36" viewBox="0 0 37 36" fill="none" xmlns="http://www.w3.org/2000/svg">
<path d="M10.807 17.0372C10.0543 17.2429 9.60763 18.0323 9.80932 18.8003C10.011 19.5683 10.7847 20.0241 11.5374 19.8183L25.8184 15.914C26.5711 15.7082 27.0178 14.9188 26.8161 14.1508C26.6144 13.3828 25.8407 12.9271 25.088 13.1329L10.807 17.0372Z" fill="#B1C909"/>
<path d="M11.0269 23.4366C10.8252 22.6686 11.2719 21.8792 12.0246 21.6734L26.3055 17.7691C27.0582 17.5633 27.8319 18.0191 28.0336 18.7871C28.2353 19.5551 27.7886 20.3445 27.0359 20.5503L12.755 24.4545C12.0022 24.6603 11.2286 24.2046 11.0269 23.4366Z" fill="#B1C909"/>
<path d="M17.1369 25.2448C16.3842 25.4506 15.9375 26.24 16.1392 27.008C16.3409 27.776 17.1146 28.2317 17.8673 28.026L24.3586 26.2513C25.1114 26.0455 25.558 25.2561 25.3564 24.4881C25.1547 23.7201 24.381 23.2643 23.6283 23.4701L17.1369 25.2448Z" fill="#B1C909"/>
<path fill-rule="evenodd" clip-rule="evenodd" d="M32.5004 6.91782L18.8561 0L4.18456 4.01108C1.17372 4.83421 -0.613038 7.99184 0.193712 11.0638L5.62109 31.7305C6.42784 34.8024 9.52261 36.6255 12.5334 35.8024L32.7887 30.2647C35.7995 29.4416 37.5863 26.284 36.7795 23.212L32.5004 6.91782ZM4.91493 6.79224L18.2236 3.15376L19.3719 7.52622C19.9769 9.83021 22.298 11.1975 24.5561 10.5801L30.1398 9.05361L34.0538 23.9572C34.4571 25.4932 33.5637 27.072 32.0583 27.4836L11.8031 33.0212C10.2976 33.4328 8.75026 32.5212 8.34689 30.9853L2.91951 10.3186C2.51613 8.78261 3.40952 7.2038 4.91493 6.79224ZM21.5153 4.56339L26.4708 7.07587L23.8258 7.79899C23.0731 8.00477 22.2994 7.54901 22.0977 6.78101L21.5153 4.56339Z" fill="#B1C909"/>
</svg>
